:SAMPLES-PER-SECOND 30
:FULLY-SPECIFIED
:DEGREES
263
root  39.1492 34.5753 37.36 -173.786 5.94627 178.79
LeftUpLeg  -24.6738 12.6928 7.16734
LeftLeg  6.14803 9.11831 0.39037
LeftFoot  6.49373 -0.048526 0.993162
LeftToes  -21.04 2.48695e-006 -1.03773e-007
Spine  4.3484 -1.05289 4.03135
Spine1  8.24862 -2.34976 7.9161
RightShoulder  0.122255 5.78967 6.77756
RightArm  -38.0734 -8.91256 62.3155
RightForeArm  24.124 18.8644 3.4499
RightHand  0.426323 -6.02342 -7.71125
LeftShoulder1  0.0397243 -0.522781 -5.49684
LeftArm  -34.3501 -22.1405 -57.9553
LeftForeArm  -0.413609 -47.1898 -10.9604
LeftHand  0.186059 7.38863 2.50872
HEad  -1.89899 21.6323 -1.13276
RightUpLeg  -10.5118 -8.82065 1.31295
RightLeg  10.8329 0.556521 0.0711017
RightFoot  -1.2552 -0.00110722 -0.000556981
RightToes  -14.3191 -0.0521043 -0.129652
264
root  38.9432 34.5795 37.1844 -173.643 7.60599 178.75
LeftUpLeg  -25.6186 13.0528 7.97781
LeftLeg  6.6062 9.00021 0.457126
LeftFoot  6.58286 -0.0488008 0.988181
LeftToes  -19.5281 2.48695e-006 -1.03773e-007
Spine  4.4868 -0.99087 4.03659
Spine1  8.52548 -2.2373 7.93569
RightShoulder  0.123519 6.00168 6.78855
RightArm  -38.2636 -9.27706 62.0636
RightForeArm  24.7988 18.0546 3.29101
RightHand  0.429514 -6.12614 -7.63536
LeftShoulder1  0.0385936 -0.511412 -5.30071
LeftArm  -31.5214 -19.8534 -58.0226
LeftForeArm  2.26927 -48.5817 -11.5246
LeftHand  0.220942 7.27481 3.10161
HEad  -2.00083 22.5474 -1.07188
RightUpLeg  -10.3546 -7.9162 0.851969
RightLeg  10.4366 1.13534 0.135766
RightFoot  -0.939904 -0.00184039 -0.00625955
RightToes  -15.5505 -0.0580677 -0.14012
265
root  38.7332 34.5672 36.9501 -173.49 9.49117 178.937
LeftUpLeg  -25.718 13.7325 8.88063
LeftLeg  6.8768 8.46009 0.469745
LeftFoot  6.49115 -0.0445683 0.906434
LeftToes  -17.795 2.48695e-006 -1.03773e-007
Spine  4.58041 -0.894759 4.10362
Spine1  8.74278 -2.04252 8.04349
RightShoulder  0.124505 6.10126 6.95654
RightArm  -38.6957 -9.69597 61.7085
RightForeArm  25.7591 17.266 3.13761
RightHand  0.419196 -6.14599 -7.41847
LeftShoulder1  0.0367486 -0.360585 -5.24954
LeftArm  -27.3832 -16.5612 -58.612
LeftForeArm  7.09976 -50.1624 -12.2087
LeftHand  0.222147 6.47385 3.55268
HEad  -1.83955 23.2947 -0.710852
RightUpLeg  -10.2197 -6.61211 0.544244
RightLeg  10.2913 1.59194 0.185748
RightFoot  -0.863468 -0.0029371 -0.0122357
RightToes  -16.5007 -0.0628226 -0.148109
266
root  38.505 34.5319 36.6582 -173.339 11.1451 179.449
LeftUpLeg  -25.2391 14.5991 9.67692
LeftLeg  7.14365 7.98642 0.480746
LeftFoot  6.1313 -0.0389299 0.79788
LeftToes  -16.2684 2.48695e-006 -1.03773e-007
Spine  4.56276 -0.956367 4.30666
Spine1  8.74454 -2.15393 8.38309
RightShoulder  0.125309 6.12383 7.23595
RightArm  -39.124 -10.3556 61.2012
RightForeArm  26.4595 16.7198 3.03214
RightHand  0.428363 -6.37542 -7.30247
LeftShoulder1  0.0319989 -0.0306015 -5.54322
LeftArm  -22.5955 -12.3854 -59.66
LeftForeArm  13.0307 -51.3417 -12.7528
LeftHand  0.156081 5.18594 3.07142
HEad  -1.09103 23.9621 -0.20706
RightUpLeg  -10.1372 -6.34549 0.478329
RightLeg  10.6219 2.96704 0.362323
RightFoot  -1.07513 -0.00395947 -0.0444812
RightToes  -17.814 -0.0696108 -0.159018
267
root  38.258 34.4831 36.3072 -173.088 12.586 -179.948
LeftUpLeg  -24.2276 14.8254 10.3093
LeftLeg  7.30645 8.72516 0.549728
LeftFoot  6.0631 -0.0448691 0.866057
LeftToes  -15.8252 2.48695e-006 -1.03773e-007
Spine  4.48325 -1.14869 4.53839
Spine1  8.62673 -2.52112 8.76151
RightShoulder  0.126002 5.98533 7.59283
RightArm  -39.4807 -11.1324 60.6979
RightForeArm  26.6815 16.4538 2.98102
RightHand  0.43415 -6.34984 -7.43705
LeftShoulder1  0.0256729 0.320884 -6.08279
LeftArm  -18.8609 -7.65827 -61.3162
LeftForeArm  21.8677 -51.5338 -12.8505
LeftHand  0.0480795 2.59913 1.74454
HEad  -0.719967 24.5469 0.0629864
RightUpLeg  -10.1395 -6.69878 0.436319
RightLeg  11.2258 4.76753 0.632081
RightFoot  -1.55808 -0.00676308 -0.119873
RightToes  -18.93 -0.0755748 -0.168164
268
root  38.0059 34.4182 35.9268 -172.605 13.8749 -179.047
LeftUpLeg  -22.8289 14.2245 11.1079
LeftLeg  7.44282 9.91001 0.647337
LeftFoot  6.35438 -0.0578851 1.04276
LeftToes  -16.1364 2.48695e-006 -1.03773e-007
Spine  4.32927 -1.35072 4.83021
Spine1  8.3617 -2.90871 9.2585
RightShoulder  0.126368 5.6828 8.02201
RightArm  -39.8061 -12.0964 60.1397
RightForeArm  26.5534 16.4342 2.97732
RightHand  0.426333 -6.34355 -7.24033
LeftShoulder1  0.0184853 0.708638 -6.44969
LeftArm  -15.4343 -2.70405 -63.71
LeftForeArm  27.7675 -50.5584 -12.4023
LeftHand  0.0114302 0.706006 1.47061
HEad  -0.870466 24.9678 0.336222
RightUpLeg  -10.0063 -6.37191 0.626493
RightLeg  11.3298 5.78021 0.776413
RightFoot  -1.85293 -0.00904505 -0.181843
RightToes  -20.3085 -0.0831851 -0.179298
269
root  37.7334 34.345 35.5203 -171.965 15.0797 -178.069
LeftUpLeg  -21.0932 12.7711 11.8061
LeftLeg  7.67718 10.8789 0.754376
LeftFoot  6.76575 -0.0726553 1.22908
LeftToes  -16.8128 2.48695e-006 -1.03773e-007
Spine  4.13839 -1.5598 5.11413
Spine1  8.00111 -3.32689 9.77876
RightShoulder  0.126075 5.35053 8.39923
RightArm  -40.0165 -13.141 59.5261
RightForeArm  26.2313 16.4598 2.98233
RightHand  0.415468 -6.40407 -7.03054
LeftShoulder1  0.0134414 0.943319 -6.87033
LeftArm  -12.2311 2.2962 -66.1474
LeftForeArm  29.4335 -47.9555 -11.2924
LeftHand  0.00893584 1.0566 0.595228
HEad  -1.32194 25.1423 0.554182
RightUpLeg  -9.81212 -6.04892 0.815678
RightLeg  11.1064 6.73316 0.877149
RightFoot  -1.97183 -0.0104829 -0.231677
RightToes  -22.1295 -0.0936452 -0.19372
270
root  37.4332 34.2904 35.1026 -171.37 16.1963 -177.463
LeftUpLeg  -19.5645 11.3225 11.6957
LeftLeg  8.52365 11.2051 0.942075
LeftFoot  7.58694 -0.0947243 1.42852
LeftToes  -18.8875 2.48695e-006 -1.03773e-007
Spine  3.96342 -1.80421 5.22617
Spine1  7.62996 -3.83101 10.0154
RightShoulder  0.124906 5.07336 8.77807
RightArm  -40.1513 -14.169 59.0218
RightForeArm  26.09 16.3907 2.96914
RightHand  0.418137 -6.31462 -7.19181
LeftShoulder1  0.010773 0.974529 -7.69909
LeftArm  -10.9284 6.71821 -68.1556
LeftForeArm  29.7283 -43.477 -9.63127
LeftHand  -0.0202789 1.13666 -2.39937
HEad  -2.01143 25.3309 0.471491
RightUpLeg  -9.82098 -5.89783 0.560103
RightLeg  11.2509 7.75618 1.02942
RightFoot  -2.17053 -0.0127483 -0.295499
RightToes  -24.2281 -0.106261 -0.209917
271
root  37.1089 34.2589 34.6581 -170.85 17.5615 -177.387
LeftUpLeg  -17.6804 10.0491 11.259
LeftLeg  6.13611 12.6177 0.535757
LeftFoot  9.13327 -0.156622 1.96071
LeftToes  -22.1049 2.48695e-006 -1.03773e-007
Spine  3.73772 -1.91405 5.06716
Spine1  7.18597 -4.0441 9.73642
RightShoulder  0.1214 5.01137 9.19451
RightArm  -40.9527 -15.3543 58.7426
RightForeArm  26.3261 15.9856 2.89169
RightHand  0.431136 -6.22821 -7.53411
LeftShoulder1  0.00911482 0.908848 -7.89468
LeftArm  -11.426 10.5243 -70.772
LeftForeArm  31.7873 -36.9174 -7.60841
LeftHand  -0.0110912 0.441123 -3.19999
HEad  -2.65388 25.7467 0.325827
RightUpLeg  -9.96825 -5.49411 -0.26613
RightLeg  11.5103 8.6804 1.191
RightFoot  -2.42065 -0.0157371 -0.367417
RightToes  -25.9137 -0.116818 -0.222586
272
root  36.7601 34.262 34.2611 -170.445 19.0901 -177.34
LeftUpLeg  -16.8083 10.4227 10.8559
LeftLeg  4.97129 12.3121 0.274454
LeftFoot  12.6356 -0.295203 2.66584
LeftToes  -26.6797 2.48695e-006 -1.03773e-007
Spine  3.52508 -1.85601 4.85037
Spine1  6.7988 -3.91929 9.34915
RightShoulder  0.109321 4.91869 9.46361
RightArm  -42.0566 -16.4886 58.7572
RightForeArm  26.587 15.3965 2.77966
RightHand  0.470807 -6.42879 -7.99023
LeftShoulder1  0.00801658 1.26934 -7.65844
LeftArm  -13.009 13.1318 -74.0069
LeftForeArm  35.2063 -28.6046 -5.50549
LeftHand  -0.00347444 0.441697 -1.2515
HEad  -2.92926 26.3948 -0.129455
RightUpLeg  -9.81993 -2.91714 -1.1852
RightLeg  10.971 7.57091 0.967519
RightFoot  -2.11641 -0.0120729 -0.276141
RightToes  -27.1632 -0.124882 -0.231774
273
root  36.3678 34.2714 33.8637 -170.247 20.19 -177.79
LeftUpLeg  -16.6376 11.9259 9.71702
LeftLeg  5.09852 11.7027 0.286842
LeftFoot  15.6013 -0.42922 3.13234
LeftToes  -30.3771 2.48695e-006 -1.03773e-007
Spine  3.22214 -1.78106 4.30126
Spine1  6.24555 -3.73921 8.32078
RightShoulder  0.0960391 4.92188 9.84957
RightArm  -44.1911 -18.0839 59.4865
RightForeArm  27.166 14.7174 2.65122
RightHand  0.482627 -6.42345 -8.20645
LeftShoulder1  0.00702797 1.21123 -7.23011
LeftArm  -15.5172 15.8646 -76.2155
LeftForeArm  37.4013 -21.351 -3.93778
LeftHand  0.0113795 1.44116 0.532228
HEad  -3.26733 26.8463 -0.70139
RightUpLeg  -9.72962 -1.52923 -2.5951
RightLeg  10.6305 7.16614 0.872987
RightFoot  -1.99461 -0.0107884 -0.242267
RightToes  -28.2128 -0.131809 -0.239354
274
root  35.9106 34.2735 33.4509 -170.537 21.3909 -178.733
LeftUpLeg  -17.2047 13.7355 7.94812
LeftLeg  7.59135 10.0081 0.679595
LeftFoot  14.7508 -0.327909 2.53287
LeftToes  -30.7924 2.48695e-006 -1.03773e-007
Spine  3.14034 -1.51472 3.49709
Spine1  6.14374 -3.18052 6.79603
RightShoulder  0.0775131 4.75988 9.98435
RightArm  -45.7941 -19.4796 60.9086
RightForeArm  27.0792 14.154 2.54551
RightHand  0.497408 -6.53865 -8.31279
LeftShoulder1  0.0057899 1.10529 -7.19403
LeftArm  -17.88 17.9214 -77.0654
LeftForeArm  37.2493 -15.8174 -2.85097
LeftHand  0.0246282 3.01724 0.563867
HEad  -4.15178 26.8569 -1.6309
RightUpLeg  -9.57781 -1.21533 -4.57239
RightLeg  10.6742 7.85488 0.962417
RightFoot  -2.0906 -0.0118681 -0.272986
RightToes  -29.294 -0.139089 -0.247029
275
root  35.4171 34.2768 33.0286 -171.168 22.7802 -179.942
LeftUpLeg  -17.5994 16.0487 5.62417
LeftLeg  9.97698 8.60215 0.94417
LeftFoot  12.8171 -0.213886 1.90409
LeftToes  -28.1697 2.48695e-006 -1.03773e-007
Spine  3.21723 -1.02404 2.53846
Spine1  6.36591 -2.15412 4.95881
RightShoulder  0.0608211 4.7692 9.91165
RightArm  -47.3015 -20.7484 62.8228
RightForeArm  27.1615 13.608 2.44353
RightHand  0.47471 -6.49966 -7.96759
LeftShoulder1  0.00439572 1.00495 -7.45849
LeftArm  -19.9523 19.4804 -76.75
LeftForeArm  37.7409 -12.8068 -2.28626
LeftHand  -0.0255334 4.46796 -1.02289
HEad  -4.87799 26.6617 -2.24681
RightUpLeg  -9.13649 -0.125172 -6.89053
RightLeg  10.3351 7.94593 0.925979
RightFoot  -1.8935 -0.0101787 -0.238478
RightToes  -30.9623 -0.150603 -0.258598
276
root  34.9344 34.2968 32.6154 -171.837 23.7774 178.709
LeftUpLeg  -17.2028 16.9258 3.31274
LeftLeg  10.4336 8.82241 1.03906
LeftFoot  11.4917 -0.178394 1.77278
LeftToes  -26.0226 2.48695e-006 -1.03773e-007
Spine  3.26143 -0.567879 1.62451
Spine1  6.50747 -1.17745 3.1822
RightShoulder  0.0439018 4.88092 9.46632
RightArm  -48.5876 -21.8417 65.1051
RightForeArm  27.5676 13.1218 2.35299
RightHand  0.4528 -6.62011 -7.43963
LeftShoulder1  0.00307383 1.08993 -7.8905
LeftArm  -21.5897 20.7014 -75.7547
LeftForeArm  39.24 -11.3273 -2.0128
LeftHand  -0.0950466 4.92731 -2.57514
HEad  -5.25213 26.3321 -2.77816
RightUpLeg  -8.441 1.48218 -9.26917
RightLeg  9.3343 7.12861 0.705721
RightFoot  -1.28167 -0.00563288 -0.126122
RightToes  -32.8205 -0.163818 -0.271083
